<svg width="16" height="16" viewBox="0 0 16 16" fill="none" xmlns="http://www.w3.org/2000/svg">
<path d="M12 14C12 12.5855 11.4381 11.2289 10.4379 10.2287C9.43772 9.22853 8.08117 8.66663 6.66668 8.66663C5.25219 8.66663 3.89563 9.22853 2.89544 10.2287C1.89525 11.2289 1.33334 12.5855 1.33334 14" stroke="#161615" stroke-width="1.25" stroke-linecap="round" stroke-linejoin="round"/>
<path d="M6.66668 8.66667C8.50763 8.66667 10 7.17428 10 5.33333C10 3.49238 8.50763 2 6.66668 2C4.82573 2 3.33334 3.49238 3.33334 5.33333C3.33334 7.17428 4.82573 8.66667 6.66668 8.66667Z" stroke="#161615" stroke-width="1.25" stroke-linecap="round" stroke-linejoin="round"/>
<path d="M14.6667 13.3333C14.6667 11.0867 13.3333 9.00001 12 8.00001C12.4383 7.67119 12.7888 7.2394 13.0204 6.74285C13.252 6.24631 13.3577 5.70032 13.328 5.15321C13.2984 4.6061 13.1343 4.07473 12.8503 3.60614C12.5664 3.13755 12.1713 2.74618 11.7 2.46667" stroke="#161615" stroke-width="1.25" stroke-linecap="round" stroke-linejoin="round"/>
</svg>
