<svg width="49" height="27" viewBox="0 0 49 27" fill="none" xmlns="http://www.w3.org/2000/svg">
<path d="M2.64 19.256V11.12L0.528 10.184L3.984 8.816V11.096H4.632C5.32 10.328 5.872 9.8 6.288 9.512C6.72 9.208 7.152 9.056 7.584 9.056C7.92 9.056 8.2 9.16 8.424 9.368C8.648 9.576 8.76 9.832 8.76 10.136C8.76 10.392 8.68 10.632 8.52 10.856C8.36 11.08 8.144 11.264 7.872 11.408L6.192 10.28L3.984 12.152V19.256H6.696V20H0.816V19.256H2.64ZM14.2343 18.944C15.0823 18.944 15.8183 18.792 16.4423 18.488C17.0663 18.184 17.5943 17.712 18.0263 17.072C17.7543 18.064 17.2423 18.84 16.4903 19.4C15.7543 19.96 14.8663 20.24 13.8263 20.24C12.4023 20.24 11.2023 19.72 10.2263 18.68C9.26625 17.64 8.78625 16.344 8.78625 14.792C8.78625 13.24 9.29025 11.896 10.2983 10.76C11.3063 9.624 12.5063 9.056 13.8983 9.056C15.1143 9.056 16.0983 9.464 16.8503 10.28C17.6183 11.08 18.0183 12.12 18.0503 13.4H9.89025C9.85825 13.544 9.83425 13.688 9.81825 13.832C9.81825 13.976 9.81825 14.128 9.81825 14.288C9.81825 15.6 10.2502 16.704 11.1142 17.6C11.9783 18.496 13.0183 18.944 14.2343 18.944ZM13.6103 10.016C12.7943 10.016 12.0663 10.264 11.4263 10.76C10.7863 11.24 10.3303 11.888 10.0583 12.704H16.6343C16.5383 11.872 16.2183 11.216 15.6743 10.736C15.1303 10.256 14.4423 10.016 13.6103 10.016ZM20.4544 19.256V11.12L18.3424 10.184L21.7984 8.816V10.856H22.4704C23.2384 10.136 23.8704 9.656 24.3664 9.416C24.8784 9.176 25.4144 9.056 25.9744 9.056C26.6144 9.056 27.1504 9.216 27.5824 9.536C28.0304 9.856 28.3504 10.312 28.5424 10.904H29.2384C29.9584 10.216 30.5904 9.736 31.1344 9.464C31.6784 9.192 32.2464 9.056 32.8384 9.056C33.7024 9.056 34.3584 9.344 34.8064 9.92C35.2704 10.496 35.5024 11.328 35.5024 12.416V19.256H37.3264V20H32.3344V19.256H34.1584V12.776C34.1584 11.944 33.9664 11.312 33.5824 10.88C33.1984 10.448 32.6384 10.232 31.9024 10.232C31.3584 10.232 30.8144 10.376 30.2704 10.664C29.7264 10.952 29.1904 11.376 28.6624 11.936V19.256H30.4864V20H25.4944V19.256H27.3184V12.776C27.3184 11.928 27.1264 11.296 26.7424 10.88C26.3584 10.448 25.7904 10.232 25.0384 10.232C24.4944 10.232 23.9504 10.376 23.4064 10.664C22.8624 10.952 22.3264 11.376 21.7984 11.936V19.256H23.6224V20H18.6304V19.256H20.4544ZM42.8711 18.776L46.2551 10.04H44.0951V9.296H48.1991V10.04H47.0471L41.0231 25.184C40.8151 25.744 40.5191 26.176 40.1351 26.48C39.7671 26.8 39.3431 26.96 38.8631 26.96C38.4791 26.96 38.1591 26.84 37.9031 26.6C37.6631 26.376 37.5431 26.088 37.5431 25.736C37.5431 25.576 37.5751 25.408 37.6391 25.232C37.7191 25.056 37.8311 24.896 37.9751 24.752L40.1591 25.52L42.1991 20.336L38.1431 10.04H37.0151V9.296H41.6471V10.04H39.6071L42.8711 18.776Z" fill="#161615"/>
<path d="M32.8 25L0.799988 25" stroke="#161615" stroke-width="0.75"/>
</svg>
