<svg width="80" height="24" viewBox="0 0 80 24" fill="none" xmlns="http://www.w3.org/2000/svg">
<path d="M32.64 16.256V8.12L30.528 7.184L33.984 5.816V8.096H34.632C35.32 7.328 35.872 6.8 36.288 6.512C36.72 6.208 37.152 6.056 37.584 6.056C37.92 6.056 38.2 6.16 38.424 6.368C38.648 6.576 38.76 6.832 38.76 7.136C38.76 7.392 38.68 7.632 38.52 7.856C38.36 8.08 38.144 8.264 37.872 8.408L36.192 7.28L33.984 9.152V16.256H36.696V17H30.816V16.256H32.64ZM44.2343 15.944C45.0823 15.944 45.8183 15.792 46.4423 15.488C47.0663 15.184 47.5943 14.712 48.0263 14.072C47.7543 15.064 47.2423 15.84 46.4903 16.4C45.7543 16.96 44.8663 17.24 43.8263 17.24C42.4023 17.24 41.2023 16.72 40.2263 15.68C39.2663 14.64 38.7862 13.344 38.7862 11.792C38.7862 10.24 39.2903 8.896 40.2983 7.76C41.3063 6.624 42.5063 6.056 43.8983 6.056C45.1143 6.056 46.0983 6.464 46.8503 7.28C47.6183 8.08 48.0183 9.12 48.0503 10.4H39.8902C39.8583 10.544 39.8343 10.688 39.8183 10.832C39.8183 10.976 39.8183 11.128 39.8183 11.288C39.8183 12.6 40.2502 13.704 41.1142 14.6C41.9783 15.496 43.0183 15.944 44.2343 15.944ZM43.6103 7.016C42.7943 7.016 42.0663 7.264 41.4263 7.76C40.7863 8.24 40.3303 8.888 40.0583 9.704H46.6343C46.5383 8.872 46.2183 8.216 45.6743 7.736C45.1303 7.256 44.4423 7.016 43.6103 7.016ZM50.4544 16.256V8.12L48.3424 7.184L51.7984 5.816V7.856H52.4704C53.2384 7.136 53.8704 6.656 54.3664 6.416C54.8784 6.176 55.4144 6.056 55.9744 6.056C56.6144 6.056 57.1504 6.216 57.5824 6.536C58.0304 6.856 58.3504 7.312 58.5424 7.904H59.2384C59.9584 7.216 60.5904 6.736 61.1344 6.464C61.6784 6.192 62.2464 6.056 62.8384 6.056C63.7024 6.056 64.3584 6.344 64.8064 6.92C65.2704 7.496 65.5024 8.328 65.5024 9.416V16.256H67.3264V17H62.3344V16.256H64.1584V9.776C64.1584 8.944 63.9664 8.312 63.5824 7.88C63.1984 7.448 62.6384 7.232 61.9024 7.232C61.3584 7.232 60.8144 7.376 60.2704 7.664C59.7264 7.952 59.1904 8.376 58.6624 8.936V16.256H60.4864V17H55.4944V16.256H57.3184V9.776C57.3184 8.928 57.1264 8.296 56.7424 7.88C56.3584 7.448 55.7904 7.232 55.0384 7.232C54.4944 7.232 53.9504 7.376 53.4064 7.664C52.8624 7.952 52.3264 8.376 51.7984 8.936V16.256H53.6224V17H48.6304V16.256H50.4544ZM72.8711 15.776L76.2551 7.04H74.0951V6.296H78.1991V7.04H77.0471L71.0231 22.184C70.8151 22.744 70.5191 23.176 70.1351 23.48C69.7671 23.8 69.3431 23.96 68.8631 23.96C68.4791 23.96 68.1591 23.84 67.9031 23.6C67.6631 23.376 67.5431 23.088 67.5431 22.736C67.5431 22.576 67.5751 22.408 67.6391 22.232C67.7191 22.056 67.8311 21.896 67.9751 21.752L70.1591 22.52L72.1991 17.336L68.1431 7.04H67.0151V6.296H71.6471V7.04H69.6071L72.8711 15.776Z" fill="#161615"/>
<path d="M62.8 22L30.8 22" stroke="#161615" stroke-width="0.75"/>
<path d="M13.0681 9.60084C12.6884 9.28129 11.2646 10.4556 10.6582 10.7957C10.0518 11.1358 8.68064 12.6058 8.58291 12.7639C8.48517 12.922 7.40539 12.8226 6.94224 12.0318C6.94224 12.0318 5.21442 9.46242 4.63087 8.94366C4.00013 9.61253 2.88324 9.76761 1.87315 9.1411C0.863055 8.51458 0.803272 6.97 1.31747 5.48905C1.83167 4.00792 3.19122 3.23271 3.19122 3.23271C3.60248 2.55532 4.01928 1.97843 5.05472 1.34766C6.15533 0.677195 8.28853 1.18284 8.28853 1.18284C9.4244 1.13109 9.94078 1.20783 10.7601 2.14734C11.5794 3.08684 10.3381 4.70249 10.3381 4.70249L12.5324 8.84246M12.5326 8.84281C13.5074 10.3945 13.6493 9.87519 13.6493 9.87519C13.6493 9.87519 14.0006 8.93373 14.8695 9.6774C15.8861 10.5474 15.5597 11.0166 15.5597 11.0166C15.203 11.4674 15.4824 11.7088 15.4824 11.7088C15.8923 12.1422 16.6636 12.3435 18.0259 12.6707C19.3881 12.9978 21.3766 14.2459 22.8834 15.0284C24.3902 15.8109 23.9356 16.7931 23.9356 16.7931C23.9356 16.7931 23.7895 17.6094 22.5984 17.5112C21.4073 17.4131 20.9433 16.5911 21.0894 15.9227C21.1507 15.6425 21.3302 15.3951 21.5181 15.2024C21.8348 14.8776 22.3017 14.7842 22.7153 14.9479C22.8068 14.9843 22.8958 15.0268 22.9734 15.0764M12.8681 16.1951C13.2448 16.6992 14.2213 17.3948 15.4789 17.9527C16.7365 18.5107 18.4391 18.4839 19.5658 18.3593C20.6924 18.2347 21.6271 17.1908 21.6271 17.1908M18.3503 18.4419C18.3503 18.4419 16.8104 19.3227 16.0124 19.6363C16.0124 19.6363 14.853 20.066 14.853 22M6.94191 12.0312C6.94191 12.0312 5.5575 11.4696 4.5417 11.801C3.5259 12.1324 3.04949 13.2827 3.02682 14.5749C3.00415 15.8671 3.98284 17.4606 5.03911 17.7207C6.09538 17.9809 7.2467 17.7326 8.62271 16.6671C8.62271 16.6671 8.60978 18.3538 8.33219 20.4225C8.27157 20.8737 8.23815 21.329 8.23815 21.7848V22" stroke="#161615" stroke-width="0.85" stroke-miterlimit="10"/>
</svg>
